<svg xmlns="http://www.w3.org/2000/svg" width="800" height="450" viewBox="0 0 800 450">
  <rect width="800" height="450" fill="#0d0d0b"/>
  <g opacity="0.05" stroke="#d4a047" stroke-width="0.4">
    <line x1="0" y1="90" x2="800" y2="90"/><line x1="0" y1="180" x2="800" y2="180"/>
    <line x1="0" y1="270" x2="800" y2="270"/><line x1="0" y1="360" x2="800" y2="360"/>
    <line x1="200" y1="0" x2="200" y2="450"/><line x1="400" y1="0" x2="400" y2="450"/>
    <line x1="600" y1="0" x2="600" y2="450"/>
  </g>
  <path d="M30,28 h30 M30,28 v30" stroke="#d4a047" stroke-width="1.2" fill="none" opacity="0.3"/>
  <path d="M770,28 h-30 M770,28 v30" stroke="#d4a047" stroke-width="1.2" fill="none" opacity="0.3"/>
  <path d="M30,422 h30 M30,422 v-30" stroke="#d4a047" stroke-width="1.2" fill="none" opacity="0.3"/>
  <path d="M770,422 h-30 M770,422 v-30" stroke="#d4a047" stroke-width="1.2" fill="none" opacity="0.3"/>
  <!-- Network/server icon -->
  <g transform="translate(330, 125)" stroke="#d4a047" fill="none">
    <rect x="0" y="0" width="140" height="90" rx="3" stroke-width="1.2" opacity="0.5"/>
    <rect x="18" y="18" width="36" height="24" rx="2" stroke-width="0.8" opacity="0.4"/>
    <rect x="62" y="18" width="36" height="24" rx="2" stroke-width="0.8" opacity="0.4"/>
    <rect x="106" y="18" width="20" height="24" rx="2" stroke-width="0.8" opacity="0.4"/>
    <line x1="0" y1="58" x2="140" y2="58" stroke-width="0.5" opacity="0.25"/>
    <rect x="18" y="66" width="8" height="8" rx="1" stroke-width="0.7" opacity="0.3"/>
    <rect x="34" y="66" width="8" height="8" rx="1" stroke-width="0.7" opacity="0.3"/>
    <rect x="50" y="66" width="8" height="8" rx="1" stroke-width="0.7" opacity="0.3"/>
  </g>
  <g stroke="#d4a047" stroke-width="0.5" opacity="0.15">
    <line x1="330" y1="215" x2="220" y2="280"/>
    <line x1="470" y1="215" x2="580" y2="280"/>
    <circle cx="220" cy="280" r="4" fill="none" stroke-width="0.7"/>
    <circle cx="580" cy="280" r="4" fill="none" stroke-width="0.7"/>
  </g>
  <text x="400" y="390" font-family="'Space Grotesk', system-ui, sans-serif" font-size="21" fill="#e8e4dc" text-anchor="middle" font-weight="600" letter-spacing="-0.01em">SSH Connection Service</text>
  <text x="400" y="414" font-family="'Space Grotesk', system-ui, sans-serif" font-size="11" fill="#8a867e" text-anchor="middle" letter-spacing="0.02em">C# · WPF · SSH · .NET</text>
</svg>
